<?xml version="1.0" encoding="UTF-8"?>
<svg id="Layer_1" data-name="Layer 1" xmlns="http://www.w3.org/2000/svg" viewBox="0 0 1080.72 1080.72">
  <g id="key">
    <path id="side" d="M485.9,730.4c1.19-55.47-17.75-82.57-27.75-92.95-7.17-3.35-13.93-7.23-20.42-11.67-13-8.9-24.4-17.9-111-87.9-9.1-7.3-43.3-34.8-76-61s-61.8-50.1-64.5-53.1c-2.8-3-6-6.7-7.1-8.3l-2.1-2.9-1,2.9c-9.3,25.6-45,127.5-49.5,140.9-10.9,32.8-13.1,47.9-9.2,62.9,3.2,12.3,13,27,24.6,36.9,2.9,2.5,24.9,21.1,48.8,41.3,49.5,41.9,102.1,86.6,151.5,128.9,105.7,90.4,106,90.7,124.1,101.5,6.59,3.91,13.06,7,19.45,9.28-.34-36.2-1.2-144.79.12-206.75Z" style="fill: #eae7e2;"/>
    <path id="middle" d="M536.31,685.61c1.61-12.81,6.35-27.78,13.27-38.86-5.33,1.34-10.82,2.39-16.64,3.22-11.9,1.7-33.5.7-44.5-2-11-2.71-20.99-6.18-30.28-10.53,10,10.39,28.93,37.48,27.75,92.95-1.32,61.96-.46,170.56-.12,206.75,16.09,5.74,31.69,6.29,47.63,1.69l1.88-238.82c.09-4.82.43-9.63,1.03-14.41Z" style="fill: #d0cec9;"/>
    <path id="front" d="M922.44,597.87c-6.6-23.8-51.8-171.5-53.4-174.2-.2-.5-3,2.5-6.2,6.5-9.5,11.8-19.9,20.8-37.6,32.7-8.5,5.7-32.2,22.6-76.5,54.5-51.3,37-66.5,47.8-93.5,66.8-14.8,10.4-32.4,22.9-39,27.7-26.83,19.57-45.51,29.56-66.66,34.88-6.92,11.08-11.66,26.05-13.27,38.86-.6,4.78-.94,9.59-1.03,14.41l-1.88,238.82c1.34-.39,2.68-.81,4.03-1.27,20-6.8,34.6-16.3,82.7-53.8,3.9-3,17.7-13.6,30.6-23.5,12.9-9.9,32.3-24.8,43-33,10.7-8.2,28.1-21.5,38.5-29.4,10.5-7.9,23.7-18,29.5-22.4,24-18.4,67.6-51.4,99-75,47.9-35.8,57.5-45.8,62.8-64.8,2.7-9.8,2.2-25.8-1.1-37.8Z" style="fill: #a19f9b;"/>
    <g id="outline_top">
      <path id="top" d="M217.34,416.57c11.4,10.6,192.1,154.7,223.9,178.6,25.8,19.4,47,27.1,74.5,27,15.7,0,27.4-2,41.5-7,17.8-6.4,15.3-4.7,176-118.8,18.7-13.3,38.5-27.2,44-31,53.4-36.8,63.1-45.5,70.5-63.2,2.9-6.8,3.2-8.5,2.8-14.5-.4-4.9-1.4-8.6-3.6-13.1-6.4-12.9-17.2-22.1-58.7-49.7-29-19.4-86.6-58.8-141.5-96.9-59.4-41.2-71.7-49.4-81.2-54-9.6-4.6-23.6-8.6-35.8-10.1-12.8-1.5-21-.7-35.3,3.4-11.8,3.5-24,9.8-42.6,22-8.6,5.6-23.2,15.1-32.6,21.1-9.3,6-29.1,18.7-44,28.3-35.9,23.2-48.6,31.3-97,61.7-50.9,32-60.1,38.2-69.2,46.8-8.5,8.1-12.5,14.1-14.8,22.1-2.1,7.3-1.5,12.9,2.4,21.1,4.1,8.7,10.5,16.9,20.7,26.2Z" style="fill: #fff;"/>
      <path id="outline" d="M950.84,605.37c-2.5-11.5-47.9-154.7-66.2-209-8-23.5-14.3-34.6-27.3-48.3-8.9-9.3-22-19.2-55.7-41.9-14.5-9.8-44.3-30.2-66.2-45.3-21.8-15.1-49-33.9-60.5-41.8-31.2-21.5-53.3-36.8-66.7-46.1-20.7-14.6-36.8-23.1-50.1-26.5-18.1-4.7-38.8-6.5-52.9-4.5-23.6,3.2-39.7,10.8-84,39.5-88.2,57.1-133,86-163.5,105.4-56.8,36.1-66.9,43.7-79,58.6-7.3,9.1-10.9,16.4-17.5,35.9-5.2,15.1-27.2,78-51.3,146.6-21.4,60.7-22.9,66.5-21.9,84.9.9,15.9,4.1,25.4,13.2,39.5,7.5,11.7,17.3,21.5,38.8,39.2,36.5,30,129.6,110.4,244.7,211.2,22.8,20,45.2,39.3,49.8,43,12.2,9.8,24.5,17.1,36.5,21.9,17.3,6.9,24.2,8.4,39.7,8.4s25-1.6,39.4-7.3c18.2-7.3,26.3-12.5,62.5-40.8,10.1-7.8,29.3-22.7,42.5-32.9,13.3-10.2,35.1-27.2,48.6-37.7,37.8-29.6,140.9-108.5,190.5-145.7,38.9-29.2,51.1-43.5,56.9-66.9,2.3-9.2,2.1-27.8-.3-39.4ZM194.24,369.27c2.3-8,6.3-14,14.8-22.1,9.1-8.6,18.3-14.8,69.2-46.8,48.4-30.4,61.1-38.5,97-61.7,14.9-9.6,34.7-22.3,44-28.3,9.4-6,24-15.5,32.6-21.1,18.6-12.2,30.8-18.5,42.6-22,14.3-4.1,22.5-4.9,35.3-3.4,12.2,1.5,26.2,5.5,35.8,10.1,9.5,4.6,21.8,12.8,81.2,54,54.9,38.1,112.5,77.5,141.5,96.9,41.5,27.6,52.3,36.8,58.7,49.7,2.2,4.5,3.2,8.2,3.6,13.1.4,6,.1,7.7-2.8,14.5-7.4,17.7-17.1,26.4-70.5,63.2-5.5,3.8-25.3,17.7-44,31-160.7,114.1-158.2,112.4-176,118.8-14.1,5-25.8,7-41.5,7-27.5.1-48.7-7.6-74.5-27-31.8-23.9-212.5-168-223.9-178.6-10.2-9.3-16.6-17.5-20.7-26.2-3.9-8.2-4.5-13.8-2.4-21.1ZM923.54,635.67c-5.3,19-14.9,29-62.8,64.8-31.4,23.6-75,56.6-99,75-5.8,4.4-19,14.5-29.5,22.4-10.4,7.9-27.8,21.2-38.5,29.4-10.7,8.2-30.1,23.1-43,33-12.9,9.9-26.7,20.5-30.6,23.5-48.1,37.5-62.7,47-82.7,53.8-1.35.46-2.69.88-4.03,1.27-15.94,4.6-31.54,4.05-47.63-1.69-6.39-2.28-12.85-5.36-19.45-9.28-18.1-10.8-18.4-11.1-124.1-101.5-49.4-42.3-102-87-151.5-128.9-23.9-20.2-45.9-38.8-48.8-41.3-11.6-9.9-21.4-24.6-24.6-36.9-3.9-15-1.7-30.1,9.2-62.9,4.5-13.4,40.2-115.3,49.5-140.9l1-2.9,2.1,2.9c1.1,1.6,4.3,5.3,7.1,8.3,2.7,3,31.8,26.9,64.5,53.1,32.7,26.2,66.9,53.7,76,61,86.6,70,98,79,111,87.9,6.49,4.44,13.25,8.32,20.42,11.67,9.29,4.35,19.27,7.82,30.28,10.53,11,2.7,32.6,3.7,44.5,2,5.82-.83,11.31-1.88,16.64-3.22,21.15-5.32,39.82-15.32,66.66-34.88,6.6-4.8,24.2-17.3,39-27.7,27-19,42.2-29.8,93.5-66.8,44.3-31.9,68-48.8,76.5-54.5,17.7-11.9,28.1-20.9,37.6-32.7,3.2-4,6-7,6.2-6.5,1.6,2.7,46.8,150.4,53.4,174.2,3.3,12,3.8,28,1.1,37.8Z"/>
    </g>
    <g id="letters">
      <path id="letter_k" d="M395.64,401.37c63.8,50.6,113.7,90.4,124.6,99.5,12.2,10.1,17.9,13,25.7,13,6.3,0,13.6-3.3,28.8-13.1,10.5-6.7,14-10.7,14-16,0-7.7,1.2-6.5-45-42.2l-22.5-17.4-.3-9.1c-.2-7,0-9.2,1-9.2,1.3,0,22,3.4,98.8,16.1,42.6,7.1,47,7.3,56.8,2.2,8.2-4.3,22.7-14.7,28.3-20.4,7.8-7.7,7.4-14.2-1.1-18.6-5.2-2.7-24.8-6.1-99-17.3-60.5-9.1-83-12.6-83.3-13.1-.2-.2.1-24.8.6-54.6s.7-55.3.3-56.7c-1.1-4.5-7.3-7.1-13.1-5.7-4.3,1.1-6.3,2.2-22.8,13.4-16.4,11-20,14.8-21.6,23-.6,2.9-1.5,27.2-2,54-.5,26.9-1.1,49-1.3,49.2-.2.1-8.6-6.2-18.8-14.2-51.5-40.1-54.2-41.8-62-39.4-5.1,1.5-21.7,13.9-29.2,21.9-5.2,5.4-5.8,6.5-5.8,10.3,0,5.6.4,6,48.9,44.4Z"/>
      <ellipse id="dot" cx="498.01" cy="528.21" rx="22.86" ry="15.41"/>
    </g>
  </g>
</svg>